<svg width="445" height="81" viewBox="0 0 445 81" fill="none" xmlns="http://www.w3.org/2000/svg">
<path d="M32.1722 79.1021V26.6638H47.2033L47.6978 36.1442L45.6211 36.2429C46.4122 34.5312 47.4011 33.017 48.5878 31.7002C49.8404 30.3835 51.2248 29.2972 52.7411 28.4414C54.3234 27.5197 55.9385 26.8284 57.5867 26.3675C59.3008 25.9067 61.0149 25.6763 62.7289 25.6763C65.3 25.6763 67.6404 26.0713 69.7501 26.8613C71.8597 27.6513 73.7056 28.9351 75.2879 30.7127C76.8701 32.4244 78.1227 34.7616 79.0456 37.7242L76.5734 37.5267L77.3645 35.9467C78.2216 34.3666 79.3093 32.9511 80.6279 31.7002C82.0123 30.3835 83.5286 29.2972 85.1768 28.4414C86.8249 27.5197 88.539 26.8284 90.319 26.3675C92.099 25.9067 93.8131 25.6763 95.4613 25.6763C99.6146 25.6763 103.076 26.4992 105.845 28.1451C108.614 29.7252 110.69 32.1282 112.075 35.3541C113.525 38.5801 114.25 42.4973 114.25 47.1058V79.1021H98.329V48.3896C98.329 46.2829 98.0324 44.5382 97.439 43.1557C96.8457 41.7731 95.9557 40.7527 94.769 40.0943C93.6483 39.3701 92.2309 39.008 90.5168 39.008C89.1323 39.008 87.8468 39.2384 86.6601 39.6993C85.5394 40.1601 84.5505 40.7856 83.6934 41.5756C82.9023 42.3657 82.276 43.2874 81.8145 44.3407C81.3531 45.3941 81.1223 46.5792 81.1223 47.8959V79.1021H65.2012V48.2909C65.2012 46.3158 64.9045 44.637 64.3112 43.2544C63.7178 41.8719 62.8278 40.8185 61.6412 40.0943C60.4545 39.3701 59.07 39.008 57.4878 39.008C56.1034 39.008 54.8178 39.2384 53.6311 39.6993C52.5104 40.1601 51.5215 40.7856 50.6645 41.5756C49.8733 42.3657 49.247 43.2874 48.7856 44.3407C48.3241 45.3941 48.0933 46.5462 48.0933 47.7971V79.1021H32.1722Z" fill="#0231C8"/>
<path d="M127.295 79.1021V26.6638H142.326L142.821 36.1442L140.744 36.2429C141.535 34.5312 142.524 33.017 143.711 31.7002C144.963 30.3835 146.348 29.2972 147.864 28.4414C149.446 27.5197 151.061 26.8284 152.71 26.3675C154.424 25.9067 156.138 25.6763 157.852 25.6763C160.423 25.6763 162.763 26.0713 164.873 26.8613C166.983 27.6513 168.828 28.9351 170.411 30.7127C171.993 32.4244 173.246 34.7616 174.168 37.7242L171.696 37.5267L172.487 35.9467C173.344 34.3666 174.432 32.9511 175.751 31.7002C177.135 30.3835 178.651 29.2972 180.3 28.4414C181.948 27.5197 183.662 26.8284 185.442 26.3675C187.222 25.9067 188.936 25.6763 190.584 25.6763C194.737 25.6763 198.199 26.4992 200.967 28.1451C203.736 29.7252 205.813 32.1282 207.197 35.3541C208.648 38.5801 209.373 42.4973 209.373 47.1058V79.1021H193.452V48.3896C193.452 46.2829 193.155 44.5382 192.562 43.1557C191.969 41.7731 191.079 40.7527 189.892 40.0943C188.771 39.3701 187.354 39.008 185.64 39.008C184.255 39.008 182.97 39.2384 181.783 39.6993C180.662 40.1601 179.673 40.7856 178.816 41.5756C178.025 42.3657 177.399 43.2874 176.937 44.3407C176.476 45.3941 176.245 46.5792 176.245 47.8959V79.1021H160.324V48.2909C160.324 46.3158 160.027 44.637 159.434 43.2544C158.841 41.8719 157.951 40.8185 156.764 40.0943C155.577 39.3701 154.193 39.008 152.611 39.008C151.226 39.008 149.941 39.2384 148.754 39.6993C147.633 40.1601 146.644 40.7856 145.787 41.5756C144.996 42.3657 144.37 43.2874 143.908 44.3407C143.447 45.3941 143.216 46.5462 143.216 47.7971V79.1021H127.295Z" fill="#0231C8"/>
<path d="M247.536 80.0896C241.734 80.0896 236.691 78.9375 232.406 76.6332C228.121 74.2631 224.791 71.0701 222.418 67.0541C220.045 62.9723 218.858 58.3309 218.858 53.1298C218.858 49.1138 219.517 45.427 220.836 42.0694C222.154 38.7118 224 35.815 226.373 33.379C228.747 30.8773 231.549 28.968 234.779 27.6513C238.075 26.2688 241.668 25.5775 245.558 25.5775C249.25 25.5775 252.612 26.2359 255.645 27.5526C258.743 28.8693 261.413 30.7127 263.655 33.0828C265.896 35.4529 267.61 38.2509 268.797 41.4769C269.984 44.7028 270.511 48.225 270.379 52.0435L270.28 56.2899H228.45L226.176 47.4021H257.425L255.744 49.2784V47.3033C255.612 45.6574 255.084 44.2091 254.161 42.9582C253.304 41.6415 252.151 40.621 250.7 39.8968C249.25 39.1726 247.602 38.8105 245.756 38.8105C243.185 38.8105 240.976 39.3372 239.13 40.3906C237.35 41.3781 235.999 42.8594 235.076 44.8345C234.153 46.7437 233.691 49.1138 233.691 51.9448C233.691 54.8416 234.285 57.3762 235.471 59.5488C236.724 61.6556 238.504 63.3015 240.811 64.4865C243.185 65.6716 245.986 66.2641 249.217 66.2641C251.458 66.2641 253.436 65.9349 255.15 65.2766C256.93 64.6182 258.842 63.499 260.886 61.9189L268.302 72.3868C266.259 74.1644 264.083 75.6128 261.776 76.732C259.468 77.8512 257.095 78.6742 254.656 79.2008C252.282 79.7934 249.909 80.0896 247.536 80.0896Z" fill="#0231C8"/>
<path d="M280.46 79.1021V26.6638H295.491L295.985 37.3292L292.821 38.5142C293.546 36.1442 294.832 34.0045 296.677 32.0953C298.589 30.1202 300.864 28.5401 303.501 27.3551C306.138 26.17 308.907 25.5775 311.807 25.5775C315.763 25.5775 319.092 26.4004 321.795 28.0463C324.498 29.6264 326.542 32.0294 327.926 35.2554C329.311 38.4155 330.003 42.2998 330.003 46.9083V79.1021H314.082V48.1921C314.082 46.0854 313.785 44.3407 313.192 42.9582C312.599 41.5756 311.676 40.5552 310.423 39.8968C309.236 39.1726 307.753 38.8434 305.973 38.9093C304.589 38.9093 303.303 39.1397 302.116 39.6005C300.93 39.9956 299.908 40.621 299.051 41.4769C298.194 42.2669 297.502 43.1886 296.974 44.242C296.513 45.2953 296.282 46.4475 296.282 47.6984V79.1021H288.47C286.624 79.1021 285.041 79.1021 283.723 79.1021C282.404 79.1021 281.317 79.1021 280.46 79.1021Z" fill="#0231C8"/>
<path d="M366.272 80.0896C361.196 80.0896 356.647 78.9046 352.626 76.5345C348.604 74.1644 345.407 70.9384 343.033 66.8566C340.726 62.7089 339.572 58.0346 339.572 52.8336C339.572 47.6325 340.726 42.9911 343.033 38.9093C345.407 34.7616 348.604 31.5027 352.626 29.1326C356.647 26.7625 361.196 25.5775 366.272 25.5775C370.953 25.5775 375.238 26.4004 379.128 28.0463C383.083 29.6922 386.215 31.9965 388.522 34.9591L379.919 45.2295C378.996 44.1761 377.908 43.1886 376.656 42.2669C375.403 41.3452 374.019 40.621 372.502 40.0943C370.986 39.5676 369.404 39.3043 367.756 39.3043C365.25 39.3043 363.042 39.8968 361.13 41.0818C359.218 42.2011 357.735 43.7811 356.68 45.822C355.625 47.8629 355.098 50.2001 355.098 52.8336C355.098 55.3353 355.625 57.6067 356.68 59.6476C357.801 61.6885 359.317 63.3015 361.229 64.4865C363.141 65.6716 365.316 66.2641 367.756 66.2641C369.47 66.2641 371.052 66.0666 372.502 65.6716C373.953 65.2107 375.271 64.5524 376.458 63.6965C377.71 62.8406 378.864 61.7872 379.919 60.5364L388.423 70.9055C386.182 73.7365 383.05 75.9749 379.029 77.6208C375.073 79.2667 370.821 80.0896 366.272 80.0896Z" fill="#0231C8"/>
<path d="M422.137 80.0896C416.335 80.0896 411.292 78.9375 407.007 76.6332C402.722 74.2631 399.392 71.0701 397.019 67.0541C394.646 62.9723 393.459 58.3309 393.459 53.1298C393.459 49.1138 394.118 45.427 395.437 42.0694C396.755 38.7118 398.601 35.815 400.975 33.379C403.348 30.8773 406.15 28.968 409.38 27.6513C412.676 26.2688 416.269 25.5775 420.159 25.5775C423.851 25.5775 427.213 26.2359 430.246 27.5526C433.344 28.8693 436.014 30.7127 438.256 33.0828C440.497 35.4529 442.211 38.2509 443.398 41.4769C444.585 44.7028 445.112 48.225 444.98 52.0435L444.881 56.2899H403.051L400.777 47.4021H432.026L430.345 49.2784V47.3033C430.213 45.6574 429.685 44.2091 428.762 42.9582C427.905 41.6415 426.752 40.621 425.301 39.8968C423.851 39.1726 422.203 38.8105 420.357 38.8105C417.786 38.8105 415.577 39.3372 413.731 40.3906C411.951 41.3781 410.6 42.8594 409.677 44.8345C408.754 46.7437 408.292 49.1138 408.292 51.9448C408.292 54.8416 408.886 57.3762 410.072 59.5488C411.325 61.6556 413.105 63.3015 415.412 64.4865C417.786 65.6716 420.588 66.2641 423.818 66.2641C426.059 66.2641 428.037 65.9349 429.751 65.2766C431.531 64.6182 433.443 63.499 435.487 61.9189L442.904 72.3868C440.86 74.1644 438.684 75.6128 436.377 76.732C434.069 77.8512 431.696 78.6742 429.257 79.2008C426.884 79.7934 424.51 80.0896 422.137 80.0896Z" fill="#0231C8"/>
<path fill-rule="evenodd" clip-rule="evenodd" d="M1.58223 26.6638V79.1021H17.4045V26.6638H1.58223Z" fill="#0231C8"/>
<path d="M9.49336 16.2946C6.52668 16.2946 4.18631 15.6034 2.47223 14.2208C0.824076 12.7724 0 10.7315 0 8.09806C0 5.72797 0.857039 3.78581 2.57112 2.27158C4.2852 0.757356 6.59261 0.000244141 9.49336 0.000244141C12.46 0.000244141 14.7674 0.724439 16.4156 2.17283C18.0637 3.55539 18.8878 5.53046 18.8878 8.09806C18.8878 10.534 18.0308 12.5091 16.3167 14.0233C14.6686 15.5375 12.3941 16.2946 9.49336 16.2946Z" fill="#0231C8"/>
</svg>
