<svg width="210" height="41" viewBox="0 0 210 41" fill="none" xmlns="http://www.w3.org/2000/svg">
<path d="M2.73245 38.5438V14.3181H10.0569V38.5438H2.73245ZM6.39468 9.52774C5.02134 9.52774 3.93793 9.20839 3.14445 8.56967C2.38148 7.90054 2 6.95767 2 5.74106C2 4.64612 2.39674 3.74887 3.19023 3.04932C3.98371 2.34977 5.05186 2 6.39468 2C7.76801 2 8.83616 2.33457 9.59913 3.0037C10.3621 3.64242 10.7436 4.55487 10.7436 5.74106C10.7436 6.86642 10.3468 7.77887 9.55335 8.47842C8.79039 9.17797 7.7375 9.52774 6.39468 9.52774Z" fill="#1833DC"/>
<path d="M16.8932 38.5438V14.3181H23.8514L24.0803 18.6979L23.119 18.7435C23.4852 17.9527 23.943 17.2532 24.4923 16.6449C25.0722 16.0366 25.7131 15.5347 26.415 15.1393C27.1474 14.7135 27.8951 14.3942 28.6581 14.1813C29.4516 13.9684 30.2451 13.8619 31.0386 13.8619C32.2288 13.8619 33.3122 14.0444 34.2888 14.4094C35.2654 14.7744 36.1199 15.3674 36.8524 16.1887C37.5848 16.9795 38.1647 18.0592 38.5919 19.4279L37.4475 19.3366L37.8137 18.6067C38.2104 17.8767 38.714 17.2228 39.3244 16.6449C39.9653 16.0366 40.6672 15.5347 41.4301 15.1393C42.1931 14.7135 42.9866 14.3942 43.8106 14.1813C44.6346 13.9684 45.4281 13.8619 46.191 13.8619C48.1137 13.8619 49.7159 14.2421 50.9977 15.0025C52.2795 15.7324 53.2408 16.8426 53.8817 18.3329C54.5531 19.8233 54.8888 21.633 54.8888 23.762V38.5438H47.5186V24.3551C47.5186 23.3818 47.3813 22.5758 47.1066 21.9371C46.8319 21.2984 46.4199 20.827 45.8706 20.5228C45.3518 20.1882 44.6956 20.021 43.9021 20.021C43.2613 20.021 42.6661 20.1274 42.1168 20.3403C41.598 20.5532 41.1402 20.8422 40.7435 21.2072C40.3773 21.5721 40.0873 21.9979 39.8737 22.4846C39.6601 22.9712 39.5532 23.5187 39.5532 24.127V38.5438H32.183V24.3095C32.183 23.397 32.0457 22.6215 31.771 21.9827C31.4963 21.344 31.0843 20.8574 30.535 20.5228C29.9857 20.1882 29.3448 20.021 28.6123 20.021C27.9714 20.021 27.3763 20.1274 26.827 20.3403C26.3082 20.5532 25.8504 20.8422 25.4537 21.2072C25.0874 21.5721 24.7975 21.9979 24.5839 22.4846C24.3702 22.9712 24.2634 23.5035 24.2634 24.0814V38.5438H16.8932Z" fill="#1833DC"/>
<path d="M60.9276 38.5438V14.3181H67.8858L68.1147 18.6979L67.1534 18.7435C67.5196 17.9527 67.9774 17.2532 68.5267 16.6449C69.1066 16.0366 69.7475 15.5347 70.4494 15.1393C71.1818 14.7135 71.9295 14.3942 72.6925 14.1813C73.486 13.9684 74.2795 13.8619 75.073 13.8619C76.2632 13.8619 77.3466 14.0444 78.3232 14.4094C79.2998 14.7744 80.1543 15.3674 80.8867 16.1887C81.6192 16.9795 82.199 18.0592 82.6263 19.4279L81.4819 19.3366L81.8481 18.6067C82.2448 17.8767 82.7484 17.2228 83.3587 16.6449C83.9996 16.0366 84.7016 15.5347 85.4645 15.1393C86.2275 14.7135 87.021 14.3942 87.845 14.1813C88.669 13.9684 89.4625 13.8619 90.2254 13.8619C92.1481 13.8619 93.7503 14.2421 95.0321 15.0025C96.3139 15.7324 97.2752 16.8426 97.9161 18.3329C98.5875 19.8233 98.9232 21.633 98.9232 23.762V38.5438H91.553V24.3551C91.553 23.3818 91.4157 22.5758 91.141 21.9371C90.8663 21.2984 90.4543 20.827 89.905 20.5228C89.3862 20.1882 88.73 20.021 87.9365 20.021C87.2956 20.021 86.7005 20.1274 86.1512 20.3403C85.6324 20.5532 85.1746 20.8422 84.7779 21.2072C84.4116 21.5721 84.1217 21.9979 83.9081 22.4846C83.6945 22.9712 83.5876 23.5187 83.5876 24.127V38.5438H76.2174V24.3095C76.2174 23.397 76.0801 22.6215 75.8054 21.9827C75.5307 21.344 75.1187 20.8574 74.5694 20.5228C74.0201 20.1882 73.3792 20.021 72.6467 20.021C72.0058 20.021 71.4107 20.1274 70.8614 20.3403C70.3426 20.5532 69.8848 20.8422 69.4881 21.2072C69.1218 21.5721 68.8319 21.9979 68.6183 22.4846C68.4046 22.9712 68.2978 23.5035 68.2978 24.0814V38.5438H60.9276Z" fill="#1833DC"/>
<path d="M116.59 39C113.904 39 111.569 38.4677 109.586 37.4032C107.602 36.3083 106.061 34.8331 104.962 32.9778C103.863 31.0921 103.314 28.9478 103.314 26.545C103.314 24.6897 103.619 22.9864 104.23 21.4353C104.84 19.8841 105.694 18.5458 106.793 17.4205C107.892 16.2647 109.189 15.3827 110.684 14.7744C112.21 14.1356 113.873 13.8163 115.674 13.8163C117.383 13.8163 118.939 14.1204 120.343 14.7287C121.778 15.337 123.014 16.1887 124.051 17.2836C125.089 18.3785 125.882 19.6712 126.432 21.1615C126.981 22.6519 127.225 24.2791 127.164 26.0432L127.118 28.0049H107.754L106.702 23.8989H121.167L120.389 24.7657V23.8533C120.328 23.0929 120.084 22.4238 119.657 21.8459C119.26 21.2376 118.726 20.7661 118.054 20.4316C117.383 20.097 116.62 19.9297 115.766 19.9297C114.575 19.9297 113.553 20.173 112.698 20.6597C111.874 21.1159 111.249 21.8002 110.822 22.7127C110.394 23.5947 110.181 24.6897 110.181 25.9975C110.181 27.3358 110.455 28.5068 111.005 29.5105C111.585 30.4838 112.409 31.2441 113.477 31.7916C114.575 32.3391 115.872 32.6128 117.368 32.6128C118.405 32.6128 119.321 32.4607 120.114 32.1566C120.938 31.8524 121.824 31.3354 122.77 30.6054L126.203 35.4414C125.257 36.2626 124.25 36.9318 123.182 37.4488C122.113 37.9659 121.015 38.3461 119.886 38.5894C118.787 38.8631 117.688 39 116.59 39Z" fill="#1833DC"/>
<path d="M131.831 38.5438V14.3181H138.789L139.018 19.2454L137.553 19.7928C137.889 18.6979 138.484 17.7094 139.338 16.8274C140.223 15.9149 141.276 15.185 142.497 14.6375C143.718 14.09 144.999 13.8163 146.342 13.8163C148.173 13.8163 149.715 14.1965 150.966 14.9568C152.217 15.6868 153.163 16.797 153.804 18.2873C154.445 19.7472 154.765 21.5417 154.765 23.6708V38.5438H147.395V24.2639C147.395 23.2906 147.258 22.4846 146.983 21.8459C146.709 21.2072 146.281 20.7357 145.701 20.4316C145.152 20.097 144.465 19.9449 143.641 19.9753C143.001 19.9753 142.405 20.0818 141.856 20.2947C141.307 20.4772 140.834 20.7661 140.437 21.1615C140.04 21.5265 139.72 21.9523 139.476 22.439C139.262 22.9256 139.155 23.4579 139.155 24.0358V38.5438H135.539C134.684 38.5438 133.952 38.5438 133.341 38.5438C132.731 38.5438 132.227 38.5438 131.831 38.5438Z" fill="#1833DC"/>
<path d="M171.555 39C169.205 39 167.099 38.4525 165.238 37.3576C163.376 36.2626 161.896 34.7723 160.797 32.8866C159.729 30.9704 159.195 28.8109 159.195 26.4081C159.195 24.0053 159.729 21.8611 160.797 19.9753C161.896 18.0592 163.376 16.5536 165.238 15.4587C167.099 14.3637 169.205 13.8163 171.555 13.8163C173.722 13.8163 175.706 14.1965 177.506 14.9568C179.337 15.7172 180.787 16.7818 181.855 18.1504L177.873 22.8952C177.445 22.4085 176.942 21.9523 176.362 21.5265C175.782 21.1007 175.141 20.7661 174.439 20.5228C173.737 20.2795 173.005 20.1578 172.242 20.1578C171.082 20.1578 170.06 20.4316 169.175 20.979C168.29 21.4961 167.603 22.2261 167.115 23.1689C166.626 24.1118 166.382 25.1915 166.382 26.4081C166.382 27.5639 166.626 28.6132 167.115 29.5561C167.634 30.499 168.335 31.2441 169.221 31.7916C170.106 32.3391 171.113 32.6128 172.242 32.6128C173.035 32.6128 173.768 32.5216 174.439 32.3391C175.111 32.1262 175.721 31.822 176.27 31.4266C176.85 31.0312 177.384 30.5446 177.873 29.9667L181.809 34.7571C180.772 36.0649 179.322 37.0991 177.461 37.8594C175.629 38.6198 173.661 39 171.555 39Z" fill="#1833DC"/>
<path d="M197.416 39C194.731 39 192.396 38.4677 190.412 37.4032C188.428 36.3083 186.887 34.8331 185.789 32.9778C184.69 31.0921 184.141 28.9478 184.141 26.545C184.141 24.6897 184.446 22.9864 185.056 21.4353C185.666 19.8841 186.521 18.5458 187.62 17.4205C188.718 16.2647 190.015 15.3827 191.511 14.7744C193.037 14.1356 194.7 13.8163 196.501 13.8163C198.21 13.8163 199.766 14.1204 201.17 14.7287C202.604 15.337 203.84 16.1887 204.878 17.2836C205.916 18.3785 206.709 19.6712 207.258 21.1615C207.808 22.6519 208.052 24.2791 207.991 26.0432L207.945 28.0049H188.581L187.528 23.8989H201.994L201.216 24.7657V23.8533C201.155 23.0929 200.911 22.4238 200.483 21.8459C200.087 21.2376 199.552 20.7661 198.881 20.4316C198.21 20.097 197.447 19.9297 196.592 19.9297C195.402 19.9297 194.38 20.173 193.525 20.6597C192.701 21.1159 192.075 21.8002 191.648 22.7127C191.221 23.5947 191.007 24.6897 191.007 25.9975C191.007 27.3358 191.282 28.5068 191.831 29.5105C192.411 30.4838 193.235 31.2441 194.303 31.7916C195.402 32.3391 196.699 32.6128 198.194 32.6128C199.232 32.6128 200.148 32.4607 200.941 32.1566C201.765 31.8524 202.65 31.3354 203.596 30.6054L207.029 35.4414C206.083 36.2626 205.076 36.9318 204.008 37.4488C202.94 37.9659 201.841 38.3461 200.712 38.5894C199.613 38.8631 198.515 39 197.416 39Z" fill="#1833DC"/>
</svg>
